<?xml version="1.0" standalone="no"?>
<!DOCTYPE svg PUBLIC "-//W3C//DTD SVG 20010904//EN"
 "http://www.w3.org/TR/2001/REC-SVG-20010904/DTD/svg10.dtd">
<svg version="1.0" xmlns="http://www.w3.org/2000/svg"
 width="300.000000pt" height="300.000000pt" viewBox="0 0 300.000000 300.000000"
 preserveAspectRatio="xMidYMid meet">

<g transform="translate(0.000000,300.000000) scale(0.100000,-0.100000)"
fill="#000000" stroke="none">
<path d="M1139 2377 c-156 -90 -337 -194 -402 -231 -97 -56 -122 -75 -142
-110 l-25 -43 0 -467 c0 -449 1 -468 20 -506 25 -49 11 -39 465 -300 343 -198
373 -213 420 -214 48 0 69 11 430 218 209 121 392 228 408 238 15 11 36 37 47
58 19 37 20 61 20 507 0 468 0 468 -23 508 -20 36 -62 63 -422 272 -390 226
-401 232 -456 232 -55 1 -64 -3 -340 -162z m456 -262 c90 -19 216 -81 283
-140 59 -53 116 -130 109 -148 -3 -7 -60 -43 -126 -81 l-121 -68 -40 45 c-59
67 -134 100 -224 100 -264 0 -399 -305 -221 -501 117 -130 319 -130 440 -1
l46 49 125 -71 c68 -40 124 -77 124 -84 0 -7 -16 -33 -35 -57 -244 -321 -737
-312 -970 16 -54 78 -81 138 -100 231 -19 92 -19 150 0 240 68 325 389 537
710 470z m415 -520 c0 -33 2 -35 35 -35 33 0 35 -2 35 -35 0 -33 -2 -35 -35
-35 -33 0 -35 -2 -35 -35 0 -32 -2 -35 -30 -35 -28 0 -30 3 -30 35 0 33 -2 35
-35 35 -33 0 -35 2 -35 35 0 33 2 35 35 35 33 0 35 2 35 35 0 32 2 35 30 35
28 0 30 -3 30 -35z m250 0 c0 -33 2 -35 35 -35 33 0 35 -2 35 -34 0 -32 -3
-35 -32 -38 -29 -3 -33 -7 -36 -35 -3 -29 -7 -33 -33 -33 -27 0 -29 3 -29 35
0 33 -2 35 -35 35 -33 0 -35 2 -35 35 0 33 2 35 35 35 33 0 35 2 35 35 0 32 2
35 30 35 28 0 30 -3 30 -35z"/>
</g>
</svg>
